<mxfile host="app.diagrams.net" modified="2023-09-14T03:24:01.473Z" agent="Mozilla/5.0 (Macintosh; Intel Mac OS X 10.15; rv:109.0) Gecko/20100101 Firefox/117.0" etag="rmLe9-wirFHQnWJ2VUkY" version="21.7.5" type="github">
  <diagram id="p5MW4FrdxKHC8RzGr4zr" name="Page-1">
    <mxGraphModel dx="1596" dy="914" grid="0" gridSize="10" guides="1" tooltips="1" connect="1" arrows="1" fold="1" page="1" pageScale="1" pageWidth="850" pageHeight="1100" math="0" shadow="0">
      <root>
        <mxCell id="0" />
        <mxCell id="1" parent="0" />
        <mxCell id="WShs_hqGKLqNlQTLM7J5-4" style="edgeStyle=orthogonalEdgeStyle;rounded=0;orthogonalLoop=1;jettySize=auto;html=1;movable=1;resizable=1;rotatable=1;deletable=1;editable=1;locked=0;connectable=1;" parent="1" source="WShs_hqGKLqNlQTLM7J5-1" target="WShs_hqGKLqNlQTLM7J5-2" edge="1">
          <mxGeometry relative="1" as="geometry" />
        </mxCell>
        <mxCell id="WShs_hqGKLqNlQTLM7J5-1" value="&lt;p data-pm-slice=&quot;1 1 []&quot;&gt;&lt;b&gt;angounou-md-red3 / 10.1.15.243&lt;/b&gt;&lt;br&gt;&lt;/p&gt;" style="aspect=fixed;perimeter=ellipsePerimeter;html=1;align=center;shadow=0;dashed=0;spacingTop=3;image;image=img/lib/active_directory/web_server.svg;movable=1;resizable=1;rotatable=1;deletable=1;editable=1;locked=0;connectable=1;" parent="1" vertex="1">
          <mxGeometry x="352" y="120" width="93" height="116.25" as="geometry" />
        </mxCell>
        <mxCell id="WShs_hqGKLqNlQTLM7J5-6" style="edgeStyle=orthogonalEdgeStyle;rounded=0;orthogonalLoop=1;jettySize=auto;html=1;movable=1;resizable=1;rotatable=1;deletable=1;editable=1;locked=0;connectable=1;" parent="1" source="WShs_hqGKLqNlQTLM7J5-2" target="WShs_hqGKLqNlQTLM7J5-5" edge="1">
          <mxGeometry relative="1" as="geometry" />
        </mxCell>
        <mxCell id="WShs_hqGKLqNlQTLM7J5-8" style="edgeStyle=orthogonalEdgeStyle;rounded=0;orthogonalLoop=1;jettySize=auto;html=1;movable=1;resizable=1;rotatable=1;deletable=1;editable=1;locked=0;connectable=1;" parent="1" source="WShs_hqGKLqNlQTLM7J5-2" target="WShs_hqGKLqNlQTLM7J5-7" edge="1">
          <mxGeometry relative="1" as="geometry" />
        </mxCell>
        <mxCell id="WShs_hqGKLqNlQTLM7J5-13" style="edgeStyle=orthogonalEdgeStyle;rounded=0;orthogonalLoop=1;jettySize=auto;html=1;movable=1;resizable=1;rotatable=1;deletable=1;editable=1;locked=0;connectable=1;" parent="1" source="WShs_hqGKLqNlQTLM7J5-2" target="WShs_hqGKLqNlQTLM7J5-12" edge="1">
          <mxGeometry relative="1" as="geometry" />
        </mxCell>
        <mxCell id="vhX65J4VJQelHYVsG8vi-7" style="edgeStyle=orthogonalEdgeStyle;rounded=0;orthogonalLoop=1;jettySize=auto;html=1;" parent="1" source="WShs_hqGKLqNlQTLM7J5-2" target="vhX65J4VJQelHYVsG8vi-6" edge="1">
          <mxGeometry relative="1" as="geometry" />
        </mxCell>
        <mxCell id="WShs_hqGKLqNlQTLM7J5-2" value="&lt;div&gt;&lt;b&gt;SDA 17GB&lt;/b&gt;&lt;/div&gt;&lt;div&gt;&lt;b&gt;Thick provisioned&lt;/b&gt;&lt;/div&gt;" style="sketch=0;pointerEvents=1;shadow=0;dashed=0;html=1;strokeColor=none;fillColor=#505050;labelPosition=center;verticalLabelPosition=bottom;verticalAlign=top;outlineConnect=0;align=center;shape=mxgraph.office.devices.hard_disk;movable=1;resizable=1;rotatable=1;deletable=1;editable=1;locked=0;connectable=1;" parent="1" vertex="1">
          <mxGeometry x="379" y="358" width="40" height="54" as="geometry" />
        </mxCell>
        <mxCell id="WShs_hqGKLqNlQTLM7J5-5" value="&lt;b&gt;SDA1&lt;/b&gt;" style="shadow=0;dashed=0;html=1;strokeColor=none;fillColor=#4495D1;labelPosition=center;verticalLabelPosition=bottom;verticalAlign=top;align=center;outlineConnect=0;shape=mxgraph.veeam.disk_partition;movable=1;resizable=1;rotatable=1;deletable=1;editable=1;locked=0;connectable=1;" parent="1" vertex="1">
          <mxGeometry x="268" y="513" width="57.2" height="57.2" as="geometry" />
        </mxCell>
        <mxCell id="WShs_hqGKLqNlQTLM7J5-7" value="&lt;b&gt;SDA2&lt;/b&gt;" style="shadow=0;dashed=0;html=1;strokeColor=none;fillColor=#4495D1;labelPosition=center;verticalLabelPosition=bottom;verticalAlign=top;align=center;outlineConnect=0;shape=mxgraph.veeam.disk_partition;movable=1;resizable=1;rotatable=1;deletable=1;editable=1;locked=0;connectable=1;" parent="1" vertex="1">
          <mxGeometry x="375" y="508" width="57.2" height="57.2" as="geometry" />
        </mxCell>
        <mxCell id="WShs_hqGKLqNlQTLM7J5-18" style="edgeStyle=orthogonalEdgeStyle;rounded=0;orthogonalLoop=1;jettySize=auto;html=1;movable=1;resizable=1;rotatable=1;deletable=1;editable=1;locked=0;connectable=1;" parent="1" source="WShs_hqGKLqNlQTLM7J5-11" target="WShs_hqGKLqNlQTLM7J5-17" edge="1">
          <mxGeometry relative="1" as="geometry" />
        </mxCell>
        <mxCell id="WShs_hqGKLqNlQTLM7J5-20" style="edgeStyle=orthogonalEdgeStyle;rounded=0;orthogonalLoop=1;jettySize=auto;html=1;movable=1;resizable=1;rotatable=1;deletable=1;editable=1;locked=0;connectable=1;" parent="1" source="WShs_hqGKLqNlQTLM7J5-11" target="WShs_hqGKLqNlQTLM7J5-19" edge="1">
          <mxGeometry relative="1" as="geometry" />
        </mxCell>
        <mxCell id="WShs_hqGKLqNlQTLM7J5-11" value="&lt;div&gt;&lt;b&gt;Volume Group Named CS&lt;/b&gt;&lt;/div&gt;&lt;b&gt;21GB&lt;/b&gt;" style="rounded=0;whiteSpace=wrap;html=1;movable=1;resizable=1;rotatable=1;deletable=1;editable=1;locked=0;connectable=1;" parent="1" vertex="1">
          <mxGeometry x="300.6" y="664" width="206" height="84" as="geometry" />
        </mxCell>
        <mxCell id="WShs_hqGKLqNlQTLM7J5-16" style="edgeStyle=orthogonalEdgeStyle;rounded=0;orthogonalLoop=1;jettySize=auto;html=1;movable=1;resizable=1;rotatable=1;deletable=1;editable=1;locked=0;connectable=1;" parent="1" source="WShs_hqGKLqNlQTLM7J5-12" target="WShs_hqGKLqNlQTLM7J5-11" edge="1">
          <mxGeometry relative="1" as="geometry" />
        </mxCell>
        <mxCell id="WShs_hqGKLqNlQTLM7J5-25" value="" style="edgeStyle=orthogonalEdgeStyle;rounded=0;orthogonalLoop=1;jettySize=auto;html=1;movable=1;resizable=1;rotatable=1;deletable=1;editable=1;locked=0;connectable=1;" parent="1" source="WShs_hqGKLqNlQTLM7J5-12" target="WShs_hqGKLqNlQTLM7J5-11" edge="1">
          <mxGeometry relative="1" as="geometry" />
        </mxCell>
        <mxCell id="WShs_hqGKLqNlQTLM7J5-12" value="&lt;div&gt;&lt;b&gt;SDA3&lt;br&gt;&lt;/b&gt;&lt;/div&gt;&lt;div&gt;&lt;b&gt;11GB Partition&lt;br&gt;&lt;/b&gt;&lt;/div&gt;" style="shadow=0;dashed=0;html=1;strokeColor=none;fillColor=#4495D1;labelPosition=center;verticalLabelPosition=bottom;verticalAlign=top;align=center;outlineConnect=0;shape=mxgraph.veeam.disk_partition;movable=1;resizable=1;rotatable=1;deletable=1;editable=1;locked=0;connectable=1;" parent="1" vertex="1">
          <mxGeometry x="470" y="502" width="57.2" height="57.2" as="geometry" />
        </mxCell>
        <mxCell id="WShs_hqGKLqNlQTLM7J5-17" value="&lt;div&gt;&lt;b&gt;Logical Volume Named:&lt;br&gt;&lt;/b&gt;&lt;/div&gt;&lt;div&gt;&lt;b&gt;root &lt;/b&gt;&lt;/div&gt;&lt;div&gt;&lt;b&gt;19.4 GB&lt;/b&gt;&lt;/div&gt;&lt;div&gt;&lt;b&gt;Increase size by 5GB&lt;/b&gt;&lt;/div&gt;&lt;div&gt;&lt;b&gt;New Total will be 14.4GB&lt;br&gt;&lt;/b&gt;&lt;/div&gt;&lt;div&gt;&lt;b&gt;&lt;font color=&quot;#ff1a12&quot;&gt;XFS&lt;/font&gt; &lt;strike&gt;or EXT4&lt;br&gt;&lt;/strike&gt;&lt;/b&gt;&lt;/div&gt;&lt;div&gt;&lt;br&gt;&lt;/div&gt;&lt;div&gt;&lt;br&gt;&lt;/div&gt;&lt;div&gt;Mount point = /&lt;br&gt;&lt;/div&gt;&lt;div&gt;&lt;br&gt;&lt;/div&gt;&lt;div&gt;&lt;strike&gt;Windows might give you F: Drive&lt;/strike&gt;&lt;br&gt;&lt;/div&gt;" style="sketch=0;pointerEvents=1;shadow=0;dashed=0;html=1;strokeColor=none;fillColor=#505050;labelPosition=center;verticalLabelPosition=bottom;verticalAlign=top;outlineConnect=0;align=center;shape=mxgraph.office.devices.hard_disk;movable=1;resizable=1;rotatable=1;deletable=1;editable=1;locked=0;connectable=1;" parent="1" vertex="1">
          <mxGeometry x="134" y="809" width="40" height="54" as="geometry" />
        </mxCell>
        <mxCell id="WShs_hqGKLqNlQTLM7J5-19" value="&lt;div&gt;&lt;b&gt;Logical Volume Named:&lt;br&gt;&lt;/b&gt;&lt;/div&gt;&lt;div&gt;&lt;b&gt;swap&lt;/b&gt;&lt;/div&gt;&lt;div&gt;&lt;b&gt;1GB&lt;/b&gt;&lt;br&gt;&lt;/div&gt;" style="sketch=0;pointerEvents=1;shadow=0;dashed=0;html=1;strokeColor=none;fillColor=#505050;labelPosition=center;verticalLabelPosition=bottom;verticalAlign=top;outlineConnect=0;align=center;shape=mxgraph.office.devices.hard_disk;movable=1;resizable=1;rotatable=1;deletable=1;editable=1;locked=0;connectable=1;" parent="1" vertex="1">
          <mxGeometry x="290" y="828" width="40" height="54" as="geometry" />
        </mxCell>
        <mxCell id="vhX65J4VJQelHYVsG8vi-9" style="edgeStyle=orthogonalEdgeStyle;rounded=0;orthogonalLoop=1;jettySize=auto;html=1;" parent="1" source="vhX65J4VJQelHYVsG8vi-6" target="vhX65J4VJQelHYVsG8vi-8" edge="1">
          <mxGeometry relative="1" as="geometry" />
        </mxCell>
        <mxCell id="vhX65J4VJQelHYVsG8vi-6" value="&lt;div&gt;&lt;b&gt;SDA4&lt;br&gt;&lt;/b&gt;&lt;/div&gt;&lt;div&gt;&lt;b&gt;3GB Partition&lt;br&gt;&lt;/b&gt;&lt;/div&gt;" style="shadow=0;dashed=0;html=1;strokeColor=none;fillColor=#4495D1;labelPosition=center;verticalLabelPosition=bottom;verticalAlign=top;align=center;outlineConnect=0;shape=mxgraph.veeam.disk_partition;movable=1;resizable=1;rotatable=1;deletable=1;editable=1;locked=0;connectable=1;" parent="1" vertex="1">
          <mxGeometry x="689" y="505" width="57.2" height="57.2" as="geometry" />
        </mxCell>
        <mxCell id="vhX65J4VJQelHYVsG8vi-11" style="edgeStyle=orthogonalEdgeStyle;rounded=0;orthogonalLoop=1;jettySize=auto;html=1;" parent="1" source="vhX65J4VJQelHYVsG8vi-8" target="vhX65J4VJQelHYVsG8vi-10" edge="1">
          <mxGeometry relative="1" as="geometry" />
        </mxCell>
        <mxCell id="T8krXfPHi92RL4_xVmkO-2" style="edgeStyle=orthogonalEdgeStyle;rounded=0;orthogonalLoop=1;jettySize=auto;html=1;" parent="1" source="vhX65J4VJQelHYVsG8vi-8" target="T8krXfPHi92RL4_xVmkO-1" edge="1">
          <mxGeometry relative="1" as="geometry">
            <Array as="points">
              <mxPoint x="651" y="777" />
              <mxPoint x="578" y="777" />
            </Array>
          </mxGeometry>
        </mxCell>
        <mxCell id="vhX65J4VJQelHYVsG8vi-8" value="&lt;div&gt;&lt;b&gt;Volume Group Named vgexam&lt;br&gt;&lt;/b&gt;&lt;/div&gt;&lt;b&gt;3GB/3GB&lt;/b&gt;" style="rounded=0;whiteSpace=wrap;html=1;movable=1;resizable=1;rotatable=1;deletable=1;editable=1;locked=0;connectable=1;" parent="1" vertex="1">
          <mxGeometry x="586" y="664" width="206" height="84" as="geometry" />
        </mxCell>
        <mxCell id="vhX65J4VJQelHYVsG8vi-10" value="&lt;div&gt;&lt;b&gt;Logical Volume Named:&lt;br&gt;&lt;/b&gt;&lt;/div&gt;&lt;div&gt;&lt;b&gt;lvexam&lt;br&gt;&lt;/b&gt;&lt;/div&gt;&lt;div&gt;&lt;b&gt;3GB&lt;/b&gt;&lt;br&gt;&lt;/div&gt;&lt;div&gt;&lt;b&gt;&lt;font color=&quot;#ff0d0d&quot;&gt;XFS&lt;/font&gt; Filesystem&lt;/b&gt;&lt;br&gt;&lt;/div&gt;&lt;div&gt;&lt;br&gt;&lt;/div&gt;&lt;div&gt;&lt;br&gt;&lt;/div&gt;&lt;div&gt;Mount Point = /mnt/lvexam&lt;br&gt;&lt;/div&gt;" style="sketch=0;pointerEvents=1;shadow=0;dashed=0;html=1;strokeColor=none;fillColor=#505050;labelPosition=center;verticalLabelPosition=bottom;verticalAlign=top;outlineConnect=0;align=center;shape=mxgraph.office.devices.hard_disk;movable=1;resizable=1;rotatable=1;deletable=1;editable=1;locked=0;connectable=1;" parent="1" vertex="1">
          <mxGeometry x="713" y="801" width="40" height="54" as="geometry" />
        </mxCell>
        <mxCell id="2EGGzxniuWBN9lKm-gvD-2" style="edgeStyle=orthogonalEdgeStyle;rounded=0;orthogonalLoop=1;jettySize=auto;html=1;entryX=0.011;entryY=0.559;entryDx=0;entryDy=0;entryPerimeter=0;" parent="1" source="2EGGzxniuWBN9lKm-gvD-1" target="WShs_hqGKLqNlQTLM7J5-1" edge="1">
          <mxGeometry relative="1" as="geometry" />
        </mxCell>
        <mxCell id="2EGGzxniuWBN9lKm-gvD-4" style="edgeStyle=orthogonalEdgeStyle;rounded=0;orthogonalLoop=1;jettySize=auto;html=1;" parent="1" source="2EGGzxniuWBN9lKm-gvD-1" target="2EGGzxniuWBN9lKm-gvD-3" edge="1">
          <mxGeometry relative="1" as="geometry" />
        </mxCell>
        <mxCell id="2EGGzxniuWBN9lKm-gvD-1" value="&lt;div&gt;&lt;b&gt;SDB 10GB&lt;/b&gt;&lt;/div&gt;&lt;div&gt;&lt;b&gt;Thick provisioned&lt;/b&gt;&lt;/div&gt;" style="sketch=0;pointerEvents=1;shadow=0;dashed=0;html=1;strokeColor=none;fillColor=#505050;labelPosition=center;verticalLabelPosition=bottom;verticalAlign=top;outlineConnect=0;align=center;shape=mxgraph.office.devices.hard_disk;movable=1;resizable=1;rotatable=1;deletable=1;editable=1;locked=0;connectable=1;" parent="1" vertex="1">
          <mxGeometry x="125" y="373" width="40" height="54" as="geometry" />
        </mxCell>
        <mxCell id="2EGGzxniuWBN9lKm-gvD-5" style="edgeStyle=orthogonalEdgeStyle;rounded=0;orthogonalLoop=1;jettySize=auto;html=1;entryX=0;entryY=0.5;entryDx=0;entryDy=0;" parent="1" source="2EGGzxniuWBN9lKm-gvD-3" target="WShs_hqGKLqNlQTLM7J5-11" edge="1">
          <mxGeometry relative="1" as="geometry">
            <Array as="points">
              <mxPoint x="136" y="616" />
              <mxPoint x="251" y="616" />
              <mxPoint x="251" y="706" />
            </Array>
          </mxGeometry>
        </mxCell>
        <mxCell id="2EGGzxniuWBN9lKm-gvD-3" value="&lt;b&gt;SDB1&lt;/b&gt;" style="shadow=0;dashed=0;html=1;strokeColor=none;fillColor=#4495D1;labelPosition=center;verticalLabelPosition=bottom;verticalAlign=top;align=center;outlineConnect=0;shape=mxgraph.veeam.disk_partition;movable=1;resizable=1;rotatable=1;deletable=1;editable=1;locked=0;connectable=1;" parent="1" vertex="1">
          <mxGeometry x="107.80000000000001" y="521" width="57.2" height="57.2" as="geometry" />
        </mxCell>
        <mxCell id="T8krXfPHi92RL4_xVmkO-1" value="&lt;div&gt;&lt;b&gt;Logical Volume Named:&lt;br&gt;&lt;/b&gt;&lt;/div&gt;&lt;div&gt;&lt;b&gt;lvexam&lt;br&gt;&lt;/b&gt;&lt;/div&gt;&lt;div&gt;&lt;b&gt;1GB&lt;/b&gt;&lt;br&gt;&lt;/div&gt;&lt;div&gt;&lt;b&gt;&lt;font color=&quot;#ff0d0d&quot;&gt;EXT4&lt;/font&gt; Filesystem&lt;/b&gt;&lt;br&gt;&lt;/div&gt;&lt;div&gt;&lt;br&gt;&lt;/div&gt;&lt;div&gt;&lt;br&gt;&lt;/div&gt;&lt;div&gt;Mount Point = /mnt/lvexam&lt;br&gt;&lt;/div&gt;" style="sketch=0;pointerEvents=1;shadow=0;dashed=0;html=1;strokeColor=none;fillColor=#505050;labelPosition=center;verticalLabelPosition=bottom;verticalAlign=top;outlineConnect=0;align=center;shape=mxgraph.office.devices.hard_disk;movable=1;resizable=1;rotatable=1;deletable=1;editable=1;locked=0;connectable=1;" parent="1" vertex="1">
          <mxGeometry x="558" y="807" width="40" height="54" as="geometry" />
        </mxCell>
      </root>
    </mxGraphModel>
  </diagram>
</mxfile>
